<?xml version="1.0" standalone="no"?><!DOCTYPE svg PUBLIC "-//W3C//DTD SVG 1.1//EN" "http://www.w3.org/Graphics/SVG/1.1/DTD/svg11.dtd"><svg t="1622650353598" class="icon" viewBox="0 0 1024 1024" version="1.1" xmlns="http://www.w3.org/2000/svg" p-id="5471" xmlns:xlink="http://www.w3.org/1999/xlink" width="200" height="200"><defs><style type="text/css"></style></defs><path d="M875.6 724c0 128.5-162.8 160-363.6 160s-363.6-31.5-363.6-160S311.2 418.6 512 418.6 875.6 595.5 875.6 724z" fill="#C7F1FF" p-id="5472"></path><path d="M491.6 343.1l-198 114.3c-15.6 9-35.5 3.7-44.5-11.9-9-15.6-3.7-35.5 11.9-44.5l198-114.3c15.6-9 35.5-3.7 44.5 11.9 9 15.6 3.7 35.5-11.9 44.5z" fill="#7BD721" p-id="5473"></path><path d="M678.6 822H345.4c-77.3 0-140-62.7-140-140V512.7c0-77.3 62.7-140 140-140h333.2c77.3 0 140 62.7 140 140V682c0 77.3-62.7 140-140 140z" fill="#00B1FF" p-id="5474"></path><path d="M368.8 668.3m-100.9 0a100.9 100.9 0 1 0 201.8 0 100.9 100.9 0 1 0-201.8 0Z" fill="#C7F1FF" p-id="5475"></path><path d="M702.3 520.7H321.7c-27.7 0-50.2-22.5-50.2-50.2 0-27.7 22.5-50.2 50.2-50.2h380.6c27.7 0 50.2 22.5 50.2 50.2 0 27.7-22.5 50.2-50.2 50.2z" fill="#FFFFFF" p-id="5476"></path><path d="M321.7 506.6c-4.4 0-7.9-3.5-7.9-7.9v-52.9c0-4.4 3.5-7.9 7.9-7.9s7.9 3.5 7.9 7.9v52.9c0 4.4-3.5 7.9-7.9 7.9z" fill="#FFB600" p-id="5477"></path><path d="M364 506.6c-4.4 0-7.9-3.5-7.9-7.9v-33.5c0-4.4 3.5-7.9 7.9-7.9s7.9 3.5 7.9 7.9v33.5c0 4.4-3.5 7.9-7.9 7.9z" fill="#FFD500" p-id="5478"></path><path d="M406.3 506.6c-4.4 0-7.9-3.5-7.9-7.9V459c0-4.4 3.5-7.9 7.9-7.9s7.9 3.5 7.9 7.9v39.6c0 4.5-3.5 8-7.9 8z" fill="#FFB600" p-id="5479"></path><path d="M448.6 506.6c-4.4 0-7.9-3.5-7.9-7.9v-18.5c0-4.4 3.5-7.9 7.9-7.9s7.9 3.5 7.9 7.9v18.5c0 4.4-3.6 7.9-7.9 7.9z" fill="#FFD500" p-id="5480"></path><path d="M490.9 506.6c-4.4 0-7.9-3.5-7.9-7.9V459c0-4.4 3.5-7.9 7.9-7.9s7.9 3.5 7.9 7.9v39.6c0 4.5-3.6 8-7.9 8z" fill="#FFB600" p-id="5481"></path><path d="M533.1 506.6c-4.4 0-7.9-3.5-7.9-7.9v-47.6c0-4.4 3.5-7.9 7.9-7.9s7.9 3.5 7.9 7.9v47.6c0.1 4.4-3.5 7.9-7.9 7.9z" fill="#FFD500" p-id="5482"></path><path d="M575.4 506.6c-4.4 0-7.9-3.5-7.9-7.9v-6.2c0-4.4 3.5-7.9 7.9-7.9s7.9 3.5 7.9 7.9v6.2c0.1 4.4-3.5 7.9-7.9 7.9z" fill="#FFB600" p-id="5483"></path><path d="M617.7 506.6c-4.4 0-7.9-3.5-7.9-7.9v-33.5c0-4.4 3.5-7.9 7.9-7.9s7.9 3.5 7.9 7.9v33.5c0 4.4-3.5 7.9-7.9 7.9z" fill="#FFD500" p-id="5484"></path><path d="M660 506.6c-4.4 0-7.9-3.5-7.9-7.9v-23.8c0-4.4 3.5-7.9 7.9-7.9s7.9 3.5 7.9 7.9v23.8c0 4.4-3.5 7.9-7.9 7.9z" fill="#FFB600" p-id="5485"></path><path d="M702.3 506.6c-4.4 0-7.9-3.5-7.9-7.9V459c0-4.4 3.5-7.9 7.9-7.9s7.9 3.5 7.9 7.9v39.6c0 4.5-3.5 8-7.9 8z" fill="#FFD500" p-id="5486"></path><path d="M660 588.5m-21.1 0a21.1 21.1 0 1 0 42.2 0 21.1 21.1 0 1 0-42.2 0Z" fill="#C7F1FF" p-id="5487"></path><path d="M660 748m-21.1 0a21.1 21.1 0 1 0 42.2 0 21.1 21.1 0 1 0-42.2 0Z" fill="#C7F1FF" p-id="5488"></path><path d="M660 667.8m-21.1 0a21.1 21.1 0 1 0 42.2 0 21.1 21.1 0 1 0-42.2 0Z" fill="#0091F1" p-id="5489"></path><path d="M588.6 628.2m-21.1 0a21.1 21.1 0 1 0 42.2 0 21.1 21.1 0 1 0-42.2 0Z" fill="#0091F1" p-id="5490"></path><path d="M588.6 707.5m-21.1 0a21.1 21.1 0 1 0 42.2 0 21.1 21.1 0 1 0-42.2 0Z" fill="#0091F1" p-id="5491"></path><path d="M731.4 628.2m-21.1 0a21.1 21.1 0 1 0 42.2 0 21.1 21.1 0 1 0-42.2 0Z" fill="#0091F1" p-id="5492"></path><path d="M731.4 707.5m-21.1 0a21.1 21.1 0 1 0 42.2 0 21.1 21.1 0 1 0-42.2 0Z" fill="#0091F1" p-id="5493"></path><path d="M682.9 311.4c-1.1 0-2.2-0.1-3.3-0.3-10.9-1.8-18.3-12.1-16.5-23 8.9-54-27.8-105.4-81.8-114.5-10.9-1.8-18.2-12.2-16.4-23.1 1.8-10.9 12.2-18.2 23.1-16.4 36.7 6.2 68.8 26.3 90.4 56.6 21.6 30.3 30.2 67.1 24.2 103.8-1.6 9.9-10.1 16.9-19.7 16.9z" fill="#6EC11D" p-id="5494"></path><path d="M612.1 311.5c-1.1 0-2.1-0.1-3.2-0.3-10.9-1.8-18.3-12.1-16.5-23 4.4-26.9-13.9-52.5-40.8-57.1-10.9-1.9-18.2-12.2-16.3-23.1 1.9-10.9 12.2-18.2 23.1-16.3 48.4 8.3 81.4 54.5 73.5 103-1.7 9.9-10.2 16.8-19.8 16.8z" fill="#7BD721" p-id="5495"></path><path d="M549 317.1c-1 0-2.1-0.1-3.2-0.3-10.9-1.7-18.3-12-16.6-22.9 0.9-5.7-3-11.2-8.7-12.2-10.9-1.9-18.2-12.3-16.3-23.1 1.9-10.9 12.3-18.2 23.1-16.3 27.1 4.7 45.6 30.7 41.3 57.9-1.4 9.9-9.9 16.9-19.6 16.9z" fill="#6EC11D" p-id="5496"></path></svg>