<?xml version="1.0" standalone="no"?><!DOCTYPE svg PUBLIC "-//W3C//DTD SVG 1.1//EN" "http://www.w3.org/Graphics/SVG/1.1/DTD/svg11.dtd"><svg t="1622553486303" class="icon" viewBox="0 0 1024 1024" version="1.1" xmlns="http://www.w3.org/2000/svg" p-id="2322" xmlns:xlink="http://www.w3.org/1999/xlink" width="200" height="200"><defs><style type="text/css"></style></defs><path d="M777.66 965.502H246.361c-5.523 0-10-4.478-10-10 0-44.261 10.748-88.265 31.081-127.253 17.4-33.365 41.819-63.179 71.111-86.954-30.587-20.377-54.033-47.78-67.279-78.755-0.81 0.028-1.619 0.043-2.426 0.043-38.111 0-69.116-31.006-69.116-69.118a68.734 68.734 0 0 1 3.259-21.013 10.35 10.35 0 0 1-0.043-0.188l-42-193.066a9.991 9.991 0 0 1-0.229-2.125c0-29.836 4.133-59.396 12.285-87.865 0.035-0.146 0.073-0.292 0.114-0.438a320.619 320.619 0 0 1 1.894-6.325c0.057-0.185 0.124-0.392 0.191-0.598l0.09-0.279a317.279 317.279 0 0 1 1.948-6.002c0.19-0.566 0.384-1.124 0.577-1.681l0.225-0.649a304.662 304.662 0 0 1 1.593-4.526 317.417 317.417 0 0 1 2.597-6.918l0.07-0.18a252.004 252.004 0 0 1 2.854-7.082l0.292-0.707c0.15-0.365 0.3-0.731 0.454-1.095a320.966 320.966 0 0 1 2.857-6.529c0.144-0.321 0.296-0.647 0.449-0.974l0.242-0.522a312.188 312.188 0 0 1 2.334-4.999c0.283-0.592 0.575-1.188 0.867-1.784l0.238-0.487a326.755 326.755 0 0 1 3.302-6.571 307.67 307.67 0 0 1 2.195-4.161l0.267-0.5c0.3-0.562 0.601-1.125 0.906-1.684 0.907-1.66 1.833-3.309 2.768-4.95l0.245-0.437c0.154-0.275 0.308-0.55 0.465-0.822a321.64 321.64 0 0 1 3.602-6.092c0.214-0.354 0.435-0.709 0.656-1.064l0.382-0.617a309.292 309.292 0 0 1 2.724-4.363c0.447-0.702 0.901-1.4 1.354-2.099a302.533 302.533 0 0 1 2.583-3.925 285.09 285.09 0 0 1 4.198-6.117l0.423-0.604c0.305-0.436 0.609-0.872 0.919-1.304a314.876 314.876 0 0 1 3.861-5.294l0.306-0.417a316.598 316.598 0 0 1 4.291-5.597c0.302-0.386 0.612-0.774 0.922-1.162l0.449-0.563a330.657 330.657 0 0 1 3.072-3.815c0.549-0.67 1.102-1.333 1.654-1.996a314.006 314.006 0 0 1 2.98-3.524c0.554-0.647 1.114-1.299 1.678-1.947a318.857 318.857 0 0 1 3.31-3.729l0.492-0.55c0.302-0.339 0.604-0.677 0.91-1.012a317.27 317.27 0 0 1 4.806-5.163l0.651-0.67a321.022 321.022 0 0 1 4.283-4.387c0.388-0.39 0.783-0.78 1.178-1.169l0.49-0.483a317.107 317.107 0 0 1 3.417-3.336 352.35 352.35 0 0 1 5.29-4.963l0.267-0.245a265.96 265.96 0 0 1 1.567-1.433 302.875 302.875 0 0 1 3.968-3.521l0.448-0.395c0.298-0.264 0.596-0.527 0.897-0.787 1.745-1.51 3.56-3.044 5.381-4.55 0.251-0.208 0.506-0.413 0.761-0.619l0.459-0.372a242.673 242.673 0 0 1 5.957-4.755l0.273-0.211a329.457 329.457 0 0 1 5.796-4.406 340.985 340.985 0 0 1 3.843-2.803l0.451-0.325c0.498-0.359 0.996-0.719 1.498-1.074a308.742 308.742 0 0 1 4.799-3.327l0.355-0.246c0.223-0.155 0.447-0.31 0.672-0.462a321.458 321.458 0 0 1 5.918-3.896c0.371-0.238 0.74-0.47 1.11-0.702l0.566-0.356a338.583 338.583 0 0 1 4.356-2.72 276.91 276.91 0 0 1 2.068-1.249l0.109-0.065a308.277 308.277 0 0 1 4.035-2.385c0.737-0.429 1.483-0.861 2.231-1.288a326.281 326.281 0 0 1 4.271-2.389l0.739-0.407c0.415-0.229 0.829-0.458 1.245-0.684a323.385 323.385 0 0 1 6.114-3.226l0.238-0.125a314.599 314.599 0 0 1 6.346-3.155c0.414-0.2 0.818-0.39 1.221-0.58l0.779-0.369a312.35 312.35 0 0 1 4.512-2.106 302.24 302.24 0 0 1 2.382-1.071 325.338 325.338 0 0 1 4.299-1.881l0.283-0.122c0.698-0.299 1.394-0.598 2.094-0.891a301.368 301.368 0 0 1 4.753-1.941l0.678-0.274c0.414-0.167 0.828-0.335 1.243-0.499a306.677 306.677 0 0 1 6.732-2.559c0.207-0.076 0.432-0.155 0.657-0.234l0.335-0.119c1.925-0.699 3.86-1.381 5.805-2.045 0.552-0.188 1.109-0.373 1.667-0.557l0.626-0.207a317.862 317.862 0 0 1 4.636-1.505 315.38 315.38 0 0 1 7.141-2.158l0.446-0.129c0.665-0.193 1.329-0.386 1.996-0.573 1.767-0.497 3.539-0.974 5.316-1.44l0.714-0.19c0.335-0.09 0.67-0.18 1.006-0.267a326.138 326.138 0 0 1 7.088-1.729c0.342-0.079 0.681-0.153 1.019-0.227l0.652-0.144c1.833-0.414 3.662-0.816 5.496-1.196 0.652-0.136 1.312-0.267 1.974-0.398l0.543-0.108a324.197 324.197 0 0 1 7.435-1.392c1.635-0.285 3.264-0.553 4.895-0.811l0.64-0.102c0.606-0.097 1.213-0.194 1.822-0.286 2.04-0.307 4.088-0.592 6.139-0.859l0.409-0.057c0.273-0.039 0.546-0.077 0.821-0.111 2.352-0.297 4.764-0.573 7.354-0.841 0.467-0.048 0.936-0.091 1.405-0.134l0.735-0.068c1.769-0.17 3.549-0.332 5.336-0.473 0.804-0.063 1.605-0.121 2.408-0.178l0.274-0.02c1.641-0.117 3.283-0.221 4.929-0.312a279.555 279.555 0 0 1 7.935-0.341l0.722-0.024c0.56-0.019 1.119-0.038 1.679-0.052 2.786-0.064 5.267-0.096 7.599-0.096h65.422c0.776 0 1.564 0.01 2.363 0.026 67.414 0.489 131.679 21.757 185.879 61.509 4.822 3.186 8.524 6.318 10.749 8.201 0.472 0.399 0.869 0.737 1.188 0.994a331.242 331.242 0 0 1 3.848 3.164l0.829 0.7a316.006 316.006 0 0 1 4.022 3.437l0.803 0.697c1.49 1.305 2.964 2.62 4.425 3.947l0.917 0.837a341.5 341.5 0 0 1 4.013 3.733l0.493 0.464a335.229 335.229 0 0 1 4.297 4.173l0.932 0.924a325.592 325.592 0 0 1 4.217 4.269l0.036 0.037a319.87 319.87 0 0 1 4.163 4.397l0.896 0.964a323.615 323.615 0 0 1 4.028 4.438l0.377 0.429a317.547 317.547 0 0 1 3.659 4.205l0.808 0.943a321.179 321.179 0 0 1 3.816 4.579l0.607 0.75a305.666 305.666 0 0 1 3.356 4.204l0.68 0.865a307.323 307.323 0 0 1 3.603 4.713l0.704 0.945a311.216 311.216 0 0 1 3.23 4.417l0.45 0.625a327.52 327.52 0 0 1 3.431 4.904l0.745 1.092c1.1 1.616 2.191 3.243 3.264 4.884l0.15 0.228a316.505 316.505 0 0 1 3.224 5.056l0.721 1.155a330.049 330.049 0 0 1 3.095 5.086c0.097 0.16 0.19 0.321 0.283 0.482 0.94 1.586 1.889 3.226 2.826 4.875l0.65 1.147c0.977 1.736 1.94 3.478 2.884 5.229l0.46 0.864a317.283 317.283 0 0 1 2.479 4.733l0.527 1.026c0.919 1.811 1.802 3.59 2.67 5.378l0.543 1.13a322.43 322.43 0 0 1 2.272 4.832l0.392 0.848a338.595 338.595 0 0 1 2.436 5.483l0.549 1.282a295.642 295.642 0 0 1 2.184 5.22l0.133 0.318 0.062 0.15c0.758 1.869 1.492 3.75 2.215 5.636l0.513 1.346a324.222 324.222 0 0 1 2.098 5.7l0.157 0.452a281.09 281.09 0 0 1 1.854 5.395l0.449 1.352c0.632 1.92 1.245 3.83 1.837 5.75l0.277 0.923c0.526 1.73 1.034 3.449 1.528 5.173l0.366 1.281c0.545 1.934 1.07 3.87 1.579 5.812l0.325 1.27c0.439 1.707 0.867 3.434 1.281 5.167l0.263 1.092c0.464 1.966 0.904 3.937 1.329 5.914l0.303 1.426c0.384 1.826 0.752 3.651 1.104 5.481l0.111 0.562c0.015 0.078 0.028 0.156 0.041 0.234 3.697 19.524 5.575 39.584 5.58 59.623 0 0.679-0.069 1.357-0.206 2.022L822.27 576.978a69.11 69.11 0 0 1 1.997 16.489c0 38.11-31.005 69.116-69.114 69.116a70.34 70.34 0 0 1-2.427-0.043c-13.246 30.974-36.691 58.378-67.278 78.755 29.292 23.776 53.712 53.589 71.111 86.954 20.234 38.798 30.976 82.561 31.08 126.604a10 10 0 0 1 0.021 0.649c0 5.522-4.477 10-10 10z m-521.102-20h510.886c-1.481-37.655-11.299-74.796-28.618-108.005-18.248-34.991-44.819-65.771-76.842-89.013a9.998 9.998 0 0 1 0.934-16.787c35.173-19.986 61.421-49.558 73.91-83.266a10.002 10.002 0 0 1 10.871-6.413c2.479 0.375 4.986 0.564 7.454 0.564 27.082 0 49.114-22.034 49.114-49.118 0.001-4.554-0.638-9.1-1.896-13.512a9.994 9.994 0 0 1-0.015-5.437l40.933-198.456c-0.066-18.527-1.838-37.056-5.267-55.093l-0.029-0.162-0.087-0.444a308.625 308.625 0 0 0-1.023-5.072l-0.279-1.318a285.62 285.62 0 0 0-1.247-5.554l-0.249-1.03a293.306 293.306 0 0 0-1.202-4.849l-0.305-1.189a301.648 301.648 0 0 0-1.476-5.431l-0.352-1.229a306.976 306.976 0 0 0-1.422-4.811l-0.281-0.936a303.153 303.153 0 0 0-1.699-5.319l-0.421-1.265a274.67 274.67 0 0 0-1.75-5.093l-0.137-0.392a300.016 300.016 0 0 0-1.966-5.338l-0.476-1.251a298.064 298.064 0 0 0-2.062-5.249l-0.123-0.293c-0.023-0.055-0.047-0.111-0.069-0.167a258.081 258.081 0 0 0-2.055-4.912l-0.526-1.232a331.56 331.56 0 0 0-2.265-5.097l-0.371-0.802a304.68 304.68 0 0 0-2.139-4.547l-0.498-1.037a315.894 315.894 0 0 0-2.489-5.015l-0.53-1.032a293.634 293.634 0 0 0-2.309-4.405l-0.424-0.798a315.526 315.526 0 0 0-2.704-4.903l-0.62-1.094a288.7 288.7 0 0 0-2.654-4.577l-0.059-0.099-0.102-0.177-0.06-0.099a307.466 307.466 0 0 0-2.938-4.83l-0.62-0.995a299.495 299.495 0 0 0-3.101-4.863l-0.071-0.106a297.408 297.408 0 0 0-3.093-4.629l-0.687-1.006a302.774 302.774 0 0 0-3.227-4.613l-0.448-0.622a293.622 293.622 0 0 0-2.988-4.085l-0.678-0.911a272.74 272.74 0 0 0-3.378-4.418l-0.656-0.836a301.576 301.576 0 0 0-3.122-3.909l-0.598-0.738a314.597 314.597 0 0 0-3.547-4.255l-0.753-0.879a290.83 290.83 0 0 0-3.445-3.959l-0.345-0.393a318.081 318.081 0 0 0-3.781-4.165l-0.838-0.902a296.143 296.143 0 0 0-3.91-4.13 315.239 315.239 0 0 0-3.981-4.03l-0.84-0.833a314.056 314.056 0 0 0-4.059-3.941l-0.48-0.453a320.487 320.487 0 0 0-3.744-3.482l-0.872-0.796a306.5 306.5 0 0 0-4.141-3.693l-0.784-0.681a301.21 301.21 0 0 0-3.751-3.204l-0.767-0.647a301.964 301.964 0 0 0-3.606-2.966c-0.411-0.333-0.924-0.765-1.532-1.279-2.035-1.723-5.111-4.326-9.026-6.895a10.592 10.592 0 0 1-0.436-0.302c-50.842-37.351-111.168-57.332-174.452-57.78l-0.13-0.001a99.358 99.358 0 0 0-2.026-0.023h-65.422c-2.176 0-4.506 0.029-7.123 0.09-0.482 0.012-0.977 0.029-1.471 0.046l-0.778 0.026c-1.634 0.05-3.255 0.108-4.871 0.185-0.864 0.041-1.72 0.087-2.576 0.135-1.554 0.086-3.091 0.184-4.625 0.292l-0.274 0.02c-0.753 0.053-1.504 0.107-2.255 0.166-1.668 0.132-3.334 0.283-4.997 0.443l-0.829 0.077c-0.391 0.036-0.781 0.071-1.169 0.111-2.438 0.252-4.703 0.511-6.923 0.791l-1.127 0.154a296.93 296.93 0 0 0-5.752 0.805c-0.547 0.083-1.094 0.17-1.641 0.257l-0.668 0.106a310.13 310.13 0 0 0-4.581 0.759 304.37 304.37 0 0 0-6.976 1.306l-0.555 0.11c-0.6 0.119-1.2 0.238-1.799 0.362-1.723 0.357-3.435 0.733-5.141 1.119l-1.577 0.35a301.75 301.75 0 0 0-6.629 1.618l-1.633 0.434c-1.646 0.432-3.304 0.877-4.956 1.342-0.614 0.173-1.227 0.351-1.84 0.529l-0.459 0.133a286.93 286.93 0 0 0-11.032 3.43l-0.665 0.22c-0.492 0.162-0.983 0.324-1.471 0.491a297.06 297.06 0 0 0-5.448 1.919l-0.919 0.326a286.62 286.62 0 0 0-6.309 2.398c-0.346 0.136-0.698 0.279-1.049 0.421l-0.756 0.306c-1.493 0.597-2.977 1.2-4.454 1.819-0.649 0.272-1.297 0.55-1.945 0.828l-0.277 0.119a294.728 294.728 0 0 0-4.039 1.768c-0.755 0.336-1.494 0.667-2.231 1.003-1.41 0.643-2.812 1.302-4.212 1.966l-0.854 0.404c-0.347 0.164-0.695 0.327-1.041 0.494a292.728 292.728 0 0 0-5.972 2.969l-0.115 0.061a302.832 302.832 0 0 0-5.794 3.057c-0.356 0.193-0.723 0.396-1.091 0.599l-0.785 0.433a312.251 312.251 0 0 0-3.99 2.231c-0.699 0.399-1.398 0.805-2.096 1.21a296.67 296.67 0 0 0-3.785 2.237l-0.119 0.071c-0.638 0.382-1.275 0.765-1.909 1.152a310.848 310.848 0 0 0-4.097 2.558l-0.64 0.403c-0.31 0.195-0.62 0.389-0.927 0.586a292.63 292.63 0 0 0-5.542 3.649l-0.956 0.659a285.968 285.968 0 0 0-4.507 3.123c-0.456 0.322-0.901 0.645-1.347 0.966l-0.474 0.342a306.319 306.319 0 0 0-3.608 2.631 315.54 315.54 0 0 0-5.446 4.139l-0.284 0.22c-0.511 0.396-1.021 0.792-1.529 1.192a300.685 300.685 0 0 0-4.018 3.236l-1.144 0.928a300.501 300.501 0 0 0-5.052 4.271c-0.248 0.214-0.479 0.419-0.711 0.624l-0.538 0.475a286.523 286.523 0 0 0-3.722 3.302c-0.485 0.439-0.965 0.88-1.444 1.321l-0.275 0.253a294.587 294.587 0 0 0-8.167 7.784l-0.523 0.516c-0.347 0.342-0.694 0.683-1.038 1.028a306.848 306.848 0 0 0-4.028 4.126l-0.607 0.625a300.65 300.65 0 0 0-4.498 4.832c-0.257 0.282-0.511 0.568-0.766 0.853l-0.547 0.612a322.046 322.046 0 0 0-3.107 3.5c-0.524 0.601-1.045 1.208-1.565 1.816a307.378 307.378 0 0 0-2.803 3.315c-0.52 0.624-1.035 1.241-1.544 1.862a296.556 296.556 0 0 0-2.882 3.581l-0.496 0.621c-0.263 0.329-0.527 0.658-0.787 0.99a305.538 305.538 0 0 0-4.032 5.258l-0.267 0.365a293.172 293.172 0 0 0-3.635 4.985c-0.275 0.384-0.539 0.762-0.804 1.14l-0.454 0.648a307.357 307.357 0 0 0-2.563 3.697 285.773 285.773 0 0 0-3.758 5.662c-0.467 0.718-0.888 1.366-1.303 2.019a312.982 312.982 0 0 0-2.55 4.085l-0.442 0.714c-0.178 0.286-0.356 0.572-0.531 0.86a303.11 303.11 0 0 0-3.38 5.717l-0.656 1.164a309.162 309.162 0 0 0-2.603 4.653c-0.273 0.501-0.542 1.004-0.811 1.508l-0.283 0.53a288.495 288.495 0 0 0-3.208 6.144 286.708 286.708 0 0 0-1.95 3.925l-0.247 0.504c-0.264 0.538-0.528 1.077-0.787 1.619a288.183 288.183 0 0 0-2.19 4.69l-0.301 0.649c-0.114 0.244-0.228 0.487-0.338 0.732a302.8 302.8 0 0 0-2.679 6.124c-0.122 0.288-0.244 0.586-0.367 0.884l-0.337 0.817c-0.626 1.5-1.247 3.012-1.851 4.532-0.273 0.688-0.541 1.379-0.809 2.071l-0.075 0.192a286.195 286.195 0 0 0-3.925 10.718l-0.239 0.691c-0.173 0.5-0.347 0.999-0.516 1.501a280.284 280.284 0 0 0-1.813 5.587l-0.264 0.821a301.781 301.781 0 0 0-1.676 5.584c-0.036 0.149-0.075 0.298-0.118 0.446-7.604 26.442-11.508 53.897-11.605 81.625l40.655 186.882a9.997 9.997 0 0 1 2.324 11.217 48.782 48.782 0 0 0-3.967 19.358c0 27.084 22.034 49.118 49.116 49.118 2.479 0 4.984-0.189 7.445-0.563a10.006 10.006 0 0 1 10.879 6.412c12.489 33.709 38.738 63.279 73.911 83.265a10.002 10.002 0 0 1 0.934 16.787c-32.022 23.242-58.593 54.022-76.841 89.014-17.32 33.22-27.137 70.361-28.618 108.016z" fill="#322B2C" p-id="2323"></path><path d="M847.846 319.1l-0.001-0.02c-0.034-0.18-0.073-0.358-0.106-0.538a321.567 321.567 0 0 0-1.07-5.309c-0.098-0.463-0.193-0.926-0.294-1.388-0.411-1.913-0.838-3.82-1.285-5.719-0.084-0.356-0.172-0.71-0.257-1.065a291.02 291.02 0 0 0-1.243-5.013c-0.104-0.405-0.206-0.811-0.312-1.216a310.446 310.446 0 0 0-1.528-5.625c-0.117-0.415-0.237-0.827-0.354-1.241a312.356 312.356 0 0 0-1.478-5c-0.093-0.303-0.182-0.606-0.272-0.908a314.981 314.981 0 0 0-1.774-5.556l-0.439-1.32a279.664 279.664 0 0 0-1.812-5.271c-0.045-0.129-0.089-0.259-0.135-0.388a316.021 316.021 0 0 0-2.529-6.826 302.78 302.78 0 0 0-2.145-5.458c-0.06-0.14-0.116-0.279-0.176-0.419a271.044 271.044 0 0 0-2.132-5.097l-0.524-1.226a341.013 341.013 0 0 0-2.354-5.302c-0.127-0.277-0.257-0.552-0.384-0.829a321.778 321.778 0 0 0-5.299-10.957c-0.176-0.342-0.354-0.683-0.526-1.024a313.935 313.935 0 0 0-2.412-4.604c-0.146-0.273-0.289-0.547-0.436-0.819a318.296 318.296 0 0 0-2.794-5.066c-0.209-0.371-0.42-0.74-0.629-1.11a295.86 295.86 0 0 0-2.761-4.76c-0.073-0.127-0.146-0.256-0.225-0.383a315.639 315.639 0 0 0-3.035-4.99c-0.229-0.37-0.461-0.74-0.692-1.109a301.608 301.608 0 0 0-3.151-4.942l-0.111-0.168a309.09 309.09 0 0 0-3.163-4.733c-0.24-0.353-0.479-0.705-0.721-1.056a312.448 312.448 0 0 0-3.32-4.747c-0.146-0.204-0.294-0.406-0.438-0.609a303.416 303.416 0 0 0-3.115-4.259c-0.233-0.312-0.464-0.626-0.698-0.938a284.787 284.787 0 0 0-3.496-4.573c-0.217-0.279-0.438-0.555-0.654-0.833a294.369 294.369 0 0 0-3.244-4.063l-0.588-0.726a326.877 326.877 0 0 0-3.693-4.431c-0.263-0.309-0.526-0.616-0.79-0.923a305.804 305.804 0 0 0-3.551-4.08c-0.12-0.136-0.238-0.273-0.358-0.408a317.63 317.63 0 0 0-4.775-5.238 311.763 311.763 0 0 0-4.033-4.26l-0.003-0.003a328.656 328.656 0 0 0-4.107-4.158c-0.303-0.301-0.604-0.603-0.909-0.902a328.483 328.483 0 0 0-4.15-4.03l-0.485-0.457a323.812 323.812 0 0 0-3.886-3.615l-0.896-0.818a316.282 316.282 0 0 0-4.283-3.82c-0.26-0.227-0.521-0.45-0.778-0.676a324.934 324.934 0 0 0-3.909-3.34c-0.265-0.223-0.527-0.447-0.793-0.669a304.803 304.803 0 0 0-3.728-3.065c-1.802-1.457-5.814-5.12-11.36-8.759C676.672 91.094 614.374 69 546.938 68.523a111.99 111.99 0 0 0-2.227-0.025h-65.422c-2.458 0-4.909 0.036-7.354 0.093-0.779 0.019-1.558 0.049-2.337 0.074-1.678 0.052-3.354 0.112-5.024 0.191-0.893 0.042-1.78 0.09-2.668 0.14a299.76 299.76 0 0 0-4.769 0.302c-0.869 0.062-1.737 0.123-2.604 0.191a302.89 302.89 0 0 0-5.173 0.459c-0.688 0.066-1.379 0.124-2.064 0.195-2.391 0.247-4.773 0.517-7.148 0.817-0.393 0.049-0.779 0.109-1.172 0.16-1.985 0.259-3.969 0.535-5.942 0.832-0.798 0.12-1.593 0.25-2.388 0.376-1.58 0.25-3.158 0.51-4.731 0.784a309.076 309.076 0 0 0-7.209 1.349c-0.814 0.162-1.629 0.321-2.441 0.49-1.774 0.368-3.545 0.757-5.31 1.156-0.542 0.123-1.086 0.236-1.626 0.361-2.295 0.532-4.58 1.09-6.854 1.672-0.56 0.144-1.114 0.299-1.675 0.445-1.72 0.451-3.436 0.912-5.145 1.393-0.793 0.223-1.583 0.454-2.373 0.683a293.447 293.447 0 0 0-11.405 3.547c-0.738 0.245-1.479 0.486-2.213 0.737a306.785 306.785 0 0 0-5.626 1.982c-0.32 0.116-0.645 0.225-0.963 0.342-2.184 0.8-4.352 1.627-6.509 2.474-0.625 0.246-1.245 0.502-1.869 0.752a312.139 312.139 0 0 0-4.601 1.879c-0.768 0.322-1.53 0.65-2.296 0.978a322.313 322.313 0 0 0-6.48 2.864 312.983 312.983 0 0 0-4.354 2.032c-0.647 0.309-1.302 0.612-1.95 0.925a304.25 304.25 0 0 0-6.188 3.076c-0.063 0.032-0.125 0.066-0.188 0.099a313.931 313.931 0 0 0-5.913 3.12c-0.646 0.35-1.285 0.708-1.931 1.062a303.21 303.21 0 0 0-4.135 2.312c-0.726 0.414-1.448 0.833-2.169 1.252a293.035 293.035 0 0 0-3.911 2.312c-0.7 0.42-1.401 0.84-2.097 1.266a312.018 312.018 0 0 0-4.233 2.643c-0.537 0.34-1.079 0.675-1.614 1.019a306.097 306.097 0 0 0-5.732 3.774c-0.335 0.226-0.665 0.46-0.999 0.688a295.223 295.223 0 0 0-4.648 3.222c-0.632 0.447-1.257 0.901-1.885 1.353a318.063 318.063 0 0 0-3.719 2.712 299.948 299.948 0 0 0-5.628 4.278c-0.625 0.485-1.25 0.968-1.871 1.458a311.473 311.473 0 0 0-4.155 3.346c-0.393 0.322-0.792 0.637-1.183 0.96a305.945 305.945 0 0 0-5.223 4.416c-0.436 0.376-0.863 0.761-1.296 1.14a295.555 295.555 0 0 0-3.84 3.408c-0.596 0.539-1.187 1.084-1.778 1.627a310.41 310.41 0 0 0-5.126 4.809 305.642 305.642 0 0 0-3.31 3.232c-0.538 0.532-1.08 1.061-1.614 1.598a309.306 309.306 0 0 0-4.158 4.259c-0.206 0.214-0.416 0.424-0.621 0.639a309.665 309.665 0 0 0-4.655 5.001c-0.457 0.501-0.905 1.01-1.358 1.514a314.466 314.466 0 0 0-3.207 3.614c-0.545 0.625-1.085 1.255-1.625 1.885a314.564 314.564 0 0 0-2.892 3.42c-0.534 0.64-1.067 1.281-1.595 1.925a311.096 311.096 0 0 0-2.981 3.702c-0.442 0.556-0.889 1.108-1.327 1.668a312.833 312.833 0 0 0-4.16 5.426c-0.099 0.132-0.194 0.267-0.292 0.399a304.716 304.716 0 0 0-3.745 5.135c-0.437 0.611-0.864 1.229-1.296 1.843a305.558 305.558 0 0 0-2.649 3.822c-0.477 0.7-0.949 1.403-1.42 2.107a291.387 291.387 0 0 0-2.466 3.747c-0.45 0.693-0.901 1.386-1.345 2.084a310.497 310.497 0 0 0-2.636 4.223c-0.334 0.544-0.676 1.084-1.007 1.631a310.92 310.92 0 0 0-3.49 5.902c-0.233 0.404-0.457 0.814-0.687 1.219a310.97 310.97 0 0 0-2.681 4.795c-0.384 0.702-0.759 1.41-1.137 2.116a297.449 297.449 0 0 0-5.325 10.396c-0.358 0.732-0.719 1.463-1.071 2.199a296.778 296.778 0 0 0-2.263 4.847c-0.22 0.48-0.447 0.955-0.664 1.437-0.944 2.093-1.865 4.2-2.764 6.318-0.247 0.582-0.482 1.169-0.726 1.752a309.468 309.468 0 0 0-1.917 4.693c-0.31 0.78-0.612 1.562-0.916 2.345a290.822 290.822 0 0 0-1.61 4.236c-0.304 0.817-0.605 1.635-0.902 2.456a295.722 295.722 0 0 0-1.545 4.389c-0.259 0.751-0.522 1.499-0.776 2.253a298.01 298.01 0 0 0-1.878 5.786c-0.091 0.292-0.19 0.58-0.28 0.872a310.323 310.323 0 0 0-1.825 6.095c-0.011 0.038-0.013 0.075-0.021 0.113-7.805 27.138-11.997 55.806-11.997 85.455l42 193.065 599.292 7.07 41.279-200.137a310.744 310.744 0 0 0-5.445-57.971z" fill="#322B2C" p-id="2324"></path><path d="M777.64 955.502H246.361c0-146.707 118.93-265.639 265.638-265.639 146.709 0 265.641 118.932 265.641 265.639z" fill="#CFEAEC" p-id="2325"></path><path d="M457.863 836.471l-103.766-98.023c40.456-43.831 138.229-25.451 177.767 2.023l-74.001 96z" fill="#B9BEBD" p-id="2326"></path><path d="M569.543 839.471l99.758-102.033c-40.456-43.829-134.221-21.441-173.758 6.033l74 96z" fill="#C0C6C4" p-id="2327"></path><path d="M755.152 534.349v-45.105c-18.389 6.138-153.151-25.966-153.151-127.942 0 101.978-314.767 134.08-333.153 127.941v45.106c-32.649 0-59.116 26.47-59.116 59.116 0 32.649 26.467 59.118 59.116 59.118a59.44 59.44 0 0 0 8.947-0.677c25.091 67.721 100.121 116.872 188.784 116.872h90.843c88.662 0 163.691-49.151 188.782-116.872a59.88 59.88 0 0 0 8.948 0.677c32.648 0 59.114-26.469 59.114-59.118 0.004-32.649-26.463-59.116-59.114-59.116z" fill="#F9E5E5" p-id="2328"></path><path d="M622.918 514.816c28.919 0 53.301 19.777 60.342 46.52 0.408 1.706 2.033 12.539 2.016 14.386 0.013 0.496-14.499 1.488-14.499 1.488 0-26.387-21.471-47.854-47.856-47.854s-47.854 21.47-47.854 47.854h-14.538c-0.004-34.403 27.987-62.394 62.389-62.394zM396.938 514.816c28.92 0 53.302 19.777 60.343 46.52 0.407 1.706 2.032 12.539 2.014 14.386 0.013 0.496-14.499 1.488-14.499 1.488 0-26.387-21.469-47.854-47.854-47.854-26.387 0-47.854 21.47-47.854 47.854h-14.539c-0.005-34.403 27.985-62.394 62.389-62.394zM512 702.686c-34.405 0-62.396-27.989-62.396-62.395h14.539c0 26.388 21.471 47.854 47.857 47.854s47.856-21.468 47.856-47.854h14.538c0.002 34.403-27.989 62.395-62.394 62.395z" fill="#322B2C" p-id="2329"></path></svg>