<?xml version="1.0" standalone="no"?><!DOCTYPE svg PUBLIC "-//W3C//DTD SVG 1.1//EN" "http://www.w3.org/Graphics/SVG/1.1/DTD/svg11.dtd"><svg t="1622553524206" class="icon" viewBox="0 0 1024 1024" version="1.1" xmlns="http://www.w3.org/2000/svg" p-id="4329" xmlns:xlink="http://www.w3.org/1999/xlink" width="200" height="200"><defs><style type="text/css"></style></defs><path d="M412.19 750.45a265 265 0 0 0-80.1 46.3C285 836.68 257.1 889.93 253.42 947h517.72c-3.68-57.07-31.53-110.32-78.68-150.25a264.89 264.89 0 0 0-82-47 316 316 0 0 1-198.25 0.7z" fill="#EF6A6A" p-id="4330"></path><path d="M823.41 452.9a313.64 313.64 0 1 0-91.71 221.43 311.13 311.13 0 0 0 91.71-221.43z m-612.87 58.89A128.06 128.06 0 1 1 338.6 639.85a128.21 128.21 0 0 1-128.06-128.06z m343.34 0a128.06 128.06 0 1 1 128.06 128.06 128.21 128.21 0 0 1-128.06-128.06z" fill="#FFD4C7" p-id="4331"></path><path d="M338.617367 511.775376m-126.405516 20.51851a128.06 128.06 0 1 0 252.811031-41.03702 128.06 128.06 0 1 0-252.811031 41.03702Z" fill="#AEF0FF" p-id="4332"></path><path d="M681.961577 511.753588m-126.405516 20.51851a128.06 128.06 0 1 0 252.811031-41.03702 128.06 128.06 0 1 0-252.811031 41.03702Z" fill="#AEF0FF" p-id="4333"></path><path d="M671.205043 163.683489a54.43 46.19 35.59 1 0 53.763409-75.123633 54.43 46.19 35.59 1 0-53.763409 75.123633Z" fill="#EF6A6A" p-id="4334"></path><path d="M761.354755 228.184383a54.43 46.19 35.59 1 0 53.76341-75.123632 54.43 46.19 35.59 1 0-53.76341 75.123632Z" fill="#EF6A6A" p-id="4335"></path><path d="M843.09 229.9c19-26.57 9.85-65.79-20.4-87.44-14.33-10.26-31.32-15.16-47.84-13.79a62.42 62.42 0 0 0-12.08 2.19c-1-19.59-11.59-39.58-30.21-52.91-30.26-21.65-70.34-17.66-89.35 8.9a52.66 52.66 0 0 0-7.16 14.15 333.49 333.49 0 0 0-128-24.54C321.7 77.68 171 229.13 171 415.77v214.76a60.21 60.21 0 0 0 60.21 60.21h55.93a326.78 326.78 0 0 0 90.92 60.37c-79.21 39.65-133.66 113.29-137.8 198.44a10 10 0 0 0 10 10.45h524a10 10 0 0 0 10-10.45c-4.17-85.83-59.46-159.95-139.69-199.37a326.6 326.6 0 0 0 88.8-59.44h55.93a60.21 60.21 0 0 0 60.21-60.21V418a339.84 339.84 0 0 0-43.23-166c14.72-2.39 28.04-9.84 36.81-22.1z m-88.52-63.36c4.92-6.86 12.89-11.08 22.44-11.87 1.11-0.09 2.22-0.14 3.33-0.14a47.09 47.09 0 0 1 27.18 9.14c18.55 13.28 25 36.18 14.36 51-6.74 9.42-18.75 13.38-31.36 11.64A346 346 0 0 0 750 177.16a27.22 27.22 0 0 1 4.57-10.62z m-244.3 586.51A299 299 0 0 1 308 674.62c-0.88-5.59-2.27-14.55-4-26a141.16 141.16 0 0 0 175.06-123.83h62.42a141.16 141.16 0 0 0 175 123.78c-1.69 11.5-3.08 20.46-4 26A299 299 0 0 1 510.18 753zM338.6 370.73a140.45 140.45 0 0 0-57.37 12.17 335.84 335.84 0 0 1 2.51-33.74l318.31 0.52 24.09-78.93L652.23 349l84.62 0.51a333.38 333.38 0 0 1 2.45 33.36 141.12 141.12 0 0 0-197.82 115.9h-62.42A141.07 141.07 0 0 0 338.6 370.73z m115.06 141.06A115.06 115.06 0 1 1 420 430.43a114.3 114.3 0 0 1 33.66 81.36z m146.92-81.36a115.06 115.06 0 1 1-33.7 81.36 114.32 114.32 0 0 1 33.7-81.36zM664.44 102c5.71-8 15.2-12.05 25.64-12.05a47.44 47.44 0 0 1 27.3 9.18c18.56 13.28 25 36.17 14.36 51a26.64 26.64 0 0 1-5.15 5.39 341.55 341.55 0 0 0-66.54-43.7 27.15 27.15 0 0 1 4.39-9.82z m19.62 704.63C724.63 841 750 885.74 756.76 934h-489c6.73-48.26 32.13-93 72.69-127.33a251.15 251.15 0 0 1 72.19-42.48 327.62 327.62 0 0 0 197.38-0.72 251.41 251.41 0 0 1 74.04 43.2z" fill="#512C56" p-id="4336"></path></svg>